<svg width="26" height="26" viewBox="0 0 26 26" fill="none" xmlns="http://www.w3.org/2000/svg">
<path d="M1.08897 24.2766L0.950391 24.334C0.850322 24.0925 0.824144 23.8266 0.875169 23.5702C0.926193 23.3137 1.05212 23.0782 1.23703 22.8933C1.23704 22.8933 1.23704 22.8933 1.23705 22.8933L22.8931 1.23721C23.1411 0.989284 23.4773 0.85 23.828 0.85C24.1786 0.85 24.5148 0.989284 24.7628 1.23721C25.0107 1.48514 25.15 1.8214 25.15 2.17202C25.15 2.52264 25.0107 2.85891 24.7628 3.10683L3.10676 24.7628C2.98407 24.8858 2.83831 24.9833 2.67783 25.0497C2.51736 25.1161 2.34534 25.1502 2.17166 25.15M1.08897 24.2766L2.17166 25.15M1.08897 24.2766L0.950391 24.334C1.05046 24.5756 1.21993 24.7821 1.43735 24.9273C1.65471 25.0725 1.91024 25.15 2.17164 25.15L2.17184 25L2.17187 25.15C2.1718 25.15 2.17173 25.15 2.17166 25.15M1.08897 24.2766L2.17166 25.15" fill="black" stroke="black" stroke-width="0.3"/>
<path d="M23.8281 25.15C23.6544 25.1502 23.4824 25.1161 23.3219 25.0497C23.1614 24.9833 23.0157 24.8858 22.893 24.7628L1.23697 3.10683C0.98904 2.85891 0.849756 2.52264 0.849756 2.17202C0.849756 1.8214 0.98904 1.48514 1.23697 1.23721C1.48489 0.989284 1.82116 0.85 2.17178 0.85C2.5224 0.85 2.85866 0.989284 3.10659 1.23721L24.7627 22.8933C24.7627 22.8933 24.7627 22.8933 24.7627 22.8933C24.9476 23.0782 25.0735 23.3137 25.1246 23.5702C25.1756 23.8266 25.1494 24.0925 25.0493 24.334C24.9493 24.5756 24.7798 24.7821 24.5624 24.9273C24.345 25.0725 24.0895 25.15 23.8281 25.15ZM23.8281 25.15C23.828 25.15 23.8279 25.15 23.8279 25.15L23.8279 25L23.8281 25.15Z" fill="black" stroke="black" stroke-width="0.3"/>
</svg>
