<svg width="69" height="69" viewBox="0 0 69 69" fill="none" xmlns="http://www.w3.org/2000/svg">
<path d="M34.227 68.7324C25.1331 68.7324 16.5779 65.1812 10.1456 58.7448C3.71337 52.3084 0.164528 43.7476 0.164528 34.6479C0.164528 25.5481 3.71337 16.9873 10.1456 10.5509C16.5779 4.11448 25.1331 0.563354 34.227 0.563354C43.3209 0.563354 51.8762 4.11448 58.3084 10.5509C64.7407 16.9873 68.2895 25.5481 68.2895 34.6479C68.2895 43.7476 64.7407 52.3084 58.3084 58.7448C51.8762 65.1812 43.3209 68.7324 34.227 68.7324ZM34.227 2.11697C16.2927 2.11697 1.71714 16.702 1.71714 34.6479C1.71714 52.5937 16.3086 67.1787 34.227 67.1787C52.1613 67.1787 66.7369 52.5779 66.7369 34.6479C66.7369 16.702 52.1613 2.11697 34.227 2.11697Z" fill="black"/>
<path d="M13.7894 21.7591C11.6189 21.7591 9.55936 20.9189 7.75325 20.1738L7.08784 19.9043C6.35907 19.6031 5.64613 19.3177 4.91735 19.0165C4.52128 18.858 4.33116 18.3982 4.48959 18.0019C4.64802 17.6056 5.10747 17.4153 5.50354 17.5739C6.23232 17.8751 6.94526 18.1604 7.67404 18.4617L8.33944 18.7312C10.1455 19.4763 12.015 20.2372 13.9162 20.2055C15.5163 20.1738 17.4967 19.3811 18.0829 17.6848C18.3364 16.9714 18.3205 16.1312 18.3205 15.2593C18.3047 13.991 18.2889 12.6911 19.0493 11.5338C19.588 10.7094 20.3801 10.2021 21.1406 9.71065C21.4892 9.48871 21.8219 9.28262 22.107 9.04482C23.6755 7.79241 24.4835 5.69978 24.6578 2.46572C24.6736 2.03768 25.038 1.70476 25.4658 1.73647C25.8935 1.75232 26.2262 2.11694 26.1945 2.54498C26.0678 4.89126 25.6083 8.2363 23.0576 10.2655C22.6932 10.5509 22.313 10.7887 21.9486 11.0265C21.299 11.4387 20.6812 11.835 20.3168 12.3899C19.8256 13.1508 19.8256 14.1654 19.8415 15.2434C19.8573 16.2105 19.8573 17.2251 19.5246 18.1921C18.6849 20.586 16.0392 21.7274 13.932 21.7591C13.9003 21.7591 13.837 21.7591 13.7894 21.7591Z" fill="black"/>
<path d="M46.8064 55.7803C45.8875 55.7803 45.1271 55.5583 44.525 55.0986C43.4318 54.2901 43.1467 53.323 42.8932 52.4669C42.7189 51.8645 42.5446 51.3097 42.1169 50.7548C41.8317 50.3902 41.4039 50.0731 40.9445 49.7402C40.1523 49.1695 39.2493 48.5195 38.98 47.3781C38.6789 46.0622 39.4236 44.9684 40.0731 44.0013C40.5801 43.2404 41.0712 42.527 40.9762 41.8611C40.8494 41.0209 39.8513 40.4502 38.7423 39.8953C38.5522 39.8002 38.3779 39.7051 38.1878 39.61C37.6016 39.3087 36.9679 39.1819 36.3342 39.277C34.1637 39.5624 32.5002 39.6734 30.9475 39.6258C29.9177 39.5941 28.5552 39.3246 26.6699 38.7539C24.135 37.9929 22.2973 35.8052 21.9804 33.1735C21.6318 30.2882 23.2161 27.4505 25.8619 26.2774C26.4006 26.0396 26.86 25.881 27.2244 25.8018C27.4621 25.7542 27.7156 25.7067 27.9374 25.6591C28.4602 25.564 28.9513 25.4689 29.3949 25.2945C29.8385 25.1201 30.3614 24.7237 30.4247 24.2164C30.4406 24.1372 30.4406 24.0579 30.4406 23.9469C30.4406 23.8043 30.4406 23.6616 30.4723 23.4872C30.6307 22.3141 31.6605 21.5531 32.5952 21.2994C33.4983 21.0616 34.4013 21.1885 35.1935 21.2994L41.4673 22.1872C41.6574 22.2189 42.0377 22.2665 42.1644 22.1872C42.2436 22.1397 42.3228 21.9177 42.2753 21.6958C42.1802 21.1568 41.7208 20.6653 41.2455 20.158C41.1188 20.0312 40.992 19.8885 40.8811 19.7617C39.8196 18.5727 39.5186 17.2727 40.1048 16.274C40.2632 15.9886 40.485 15.7667 40.6752 15.5923C41.0079 15.2594 41.0554 15.1801 41.0237 15.0057C41.0079 14.9264 40.9762 14.8313 40.9128 14.7679C40.6752 14.4984 40.2632 14.3874 39.677 14.4191C38.4413 14.5143 37.2531 15.2118 36.0965 15.8935L35.7955 16.0679C34.3221 16.9398 32.7061 17.7166 30.9792 17.5105C29.8702 17.3678 28.8087 16.702 28.2067 15.735C27.7156 14.9581 27.5888 14.1021 27.8582 13.3094C28.1909 12.3106 29.0781 11.518 30.3614 11.0899C30.8366 10.9314 31.2961 10.8363 31.7555 10.7412C32.1991 10.6461 32.6269 10.5509 33.023 10.4083C34.8449 9.77413 36.2233 7.99856 36.3817 6.08032C36.3817 5.9852 36.3975 5.90593 36.3975 5.81081C36.4134 5.46204 36.4451 5.06571 36.5877 4.66938C36.8095 4.03525 37.2372 3.55965 37.6808 3.14747C38.4571 2.41822 39.3127 1.78409 40.2316 1.24508C40.5959 1.02313 41.0712 1.14996 41.293 1.53043C41.5148 1.89506 41.3881 2.37066 41.0079 2.5926C40.184 3.0682 39.4236 3.63892 38.7265 4.2889C38.4255 4.55841 38.1403 4.85962 38.0294 5.17668C37.966 5.38278 37.9502 5.63643 37.9343 5.90593C37.9343 6.00105 37.9185 6.11203 37.9185 6.20715C37.7125 8.71196 35.9064 11.0424 33.53 11.8668C33.0388 12.0411 32.5477 12.1363 32.0724 12.2472C31.6446 12.3424 31.2327 12.4216 30.8525 12.5643C30.4723 12.6911 29.5692 13.0716 29.3157 13.8009C29.1731 14.2447 29.3316 14.6569 29.5058 14.9106C29.8544 15.4654 30.5198 15.8935 31.1535 15.9728C32.4209 16.1313 33.7518 15.4654 35.0034 14.7362L35.3044 14.5618C36.6193 13.785 37.966 12.9765 39.5662 12.8655C40.6435 12.7862 41.5148 13.0875 42.0693 13.7374C42.3387 14.0387 42.4971 14.4033 42.5605 14.7838C42.7031 15.7508 42.1486 16.3215 41.7683 16.6861C41.6416 16.813 41.5148 16.9398 41.4356 17.0666C41.1821 17.4947 41.5465 18.2239 42.0218 18.7471C42.1327 18.8739 42.2436 18.9849 42.3545 19.1117C42.9566 19.7458 43.6378 20.4592 43.7962 21.4738C43.9388 22.3299 43.6061 23.1384 42.9724 23.5348C42.3704 23.9152 41.6733 23.8043 41.2455 23.7567L34.9717 22.8689C34.2904 22.7738 33.5775 22.6787 32.9755 22.8214C32.5318 22.9323 32.0566 23.2811 31.9932 23.7091C31.9773 23.7726 31.9773 23.8677 31.9773 23.9786C31.9773 24.1055 31.9773 24.2481 31.9615 24.4067C31.8506 25.3896 31.0901 26.2774 29.997 26.7371C29.4108 26.9908 28.8087 27.1017 28.2225 27.1969C28.0007 27.2444 27.7789 27.2761 27.5571 27.3237C27.367 27.3712 27.0343 27.4664 26.4798 27.7042C24.4677 28.5919 23.2478 30.7797 23.5172 32.9992C23.7707 35.0125 25.1807 36.7088 27.1135 37.2795C28.8404 37.8027 30.1079 38.0563 30.9792 38.088C32.4526 38.1198 34.0369 38.0246 36.1282 37.7551C37.0788 37.6283 38.0452 37.8027 38.9007 38.2624C39.075 38.3575 39.2493 38.4527 39.4394 38.5319C40.5643 39.1027 42.2595 39.9429 42.5129 41.655C42.7031 42.9233 41.9901 43.9696 41.3564 44.8891C40.8019 45.6976 40.3425 46.3793 40.485 47.0451C40.6118 47.6159 41.1821 48.028 41.8475 48.4878C42.3862 48.8683 42.9249 49.2646 43.3526 49.8195C43.9547 50.5963 44.1765 51.3572 44.3824 52.0389C44.6201 52.8157 44.7785 53.3706 45.4598 53.8779C45.9509 54.2425 46.6638 54.2742 47.1866 54.2267C49.468 54.0364 51.3692 52.467 52.5416 51.167C55.8369 47.5841 57.9757 44.1281 57.6906 38.9124C57.5797 36.7722 57.9441 34.965 58.7996 33.5223C59.1957 32.8406 59.7185 32.2858 60.2096 31.7626C60.7166 31.2236 61.2077 30.7004 61.5087 30.1139C62.0949 28.9883 61.9999 27.5298 61.2711 26.4835C61.0176 26.1188 60.6849 25.7859 60.3363 25.4213C59.5442 24.5969 58.6411 23.6774 58.6095 22.3458C58.5619 20.6336 60.067 19.3495 61.5563 18.969C62.3959 18.7471 63.2198 18.7471 63.9169 18.7788C64.3446 18.7946 64.6773 19.1593 64.6615 19.5873C64.6457 20.0153 64.2813 20.3483 63.8535 20.3324C63.2673 20.3165 62.5861 20.3165 61.9365 20.4751C61.0334 20.7129 60.1146 21.458 60.1462 22.3141C60.1621 23.0433 60.7483 23.6457 61.4295 24.3433C61.8098 24.7237 62.19 25.1359 62.5227 25.5957C63.5842 27.1017 63.7109 29.2102 62.8712 30.8273C62.4593 31.6041 61.889 32.2223 61.3345 32.8248C60.875 33.3162 60.4314 33.7918 60.1145 34.315C59.4333 35.4723 59.1323 37.0417 59.2273 38.8331C59.5442 44.572 57.2311 48.3451 53.6664 52.2133C52.2881 53.7035 50.0701 55.5425 47.2975 55.7644C47.1233 55.7803 46.9648 55.7803 46.8064 55.7803Z" fill="black"/>
<path d="M20.5229 65.7837C20.0951 65.7837 19.7466 65.4349 19.7466 65.0069C19.7466 64.9117 19.7624 64.8166 19.7941 64.7215C20.0634 63.8971 20.2535 62.6923 19.6674 61.5508C19.3505 60.9326 18.8277 60.3936 18.289 59.8228C17.7345 59.2521 17.18 58.6655 16.7522 57.9204C15.8492 56.3193 15.8333 54.2583 16.7205 52.6572C16.8948 52.3559 17.0691 52.0864 17.2592 51.8169C17.4652 51.5157 17.6711 51.2145 17.8137 50.9133C18.1147 50.2475 18.1147 49.4389 17.782 48.678C17.4493 47.917 16.879 47.3463 16.1819 47.1244C15.4848 46.8866 14.6926 46.9341 13.8688 46.9658C13.0608 46.9976 12.2053 47.0451 11.3656 46.839C8.51386 46.1732 7.0563 43.2245 6.08988 40.7514C6.04235 40.6087 5.97898 40.466 5.93145 40.3233C5.59875 39.4355 5.28189 38.5953 4.69569 38.0405C3.76096 37.1368 2.68363 36.8832 1.55878 36.6137C1.28944 36.5502 1.02011 36.4868 0.750781 36.4076C0.338863 36.2966 0.101217 35.8686 0.212118 35.4564C0.323019 35.0442 0.750781 34.8064 1.1627 34.9174C1.40035 34.9808 1.65383 35.0442 1.92316 35.1076C3.15892 35.393 4.55311 35.7259 5.78886 36.9149C6.62854 37.7234 7.04046 38.8173 7.38901 39.7685C7.43654 39.9111 7.49991 40.0538 7.54744 40.1965C8.37127 42.3208 9.59119 44.8415 11.73 45.3488C12.3637 45.5073 13.0767 45.4598 13.8054 45.4281C14.7402 45.3805 15.7224 45.333 16.6889 45.6659C17.7979 46.0305 18.7168 46.9183 19.2237 48.0756C19.7307 49.2329 19.7307 50.517 19.2396 51.5791C19.0495 51.9913 18.796 52.3559 18.5583 52.7047C18.3841 52.9425 18.2256 53.1803 18.0989 53.4181C17.4652 54.5596 17.481 56.0339 18.1306 57.1753C18.4633 57.7461 18.9386 58.2375 19.4297 58.7765C20.0317 59.3948 20.6338 60.0448 21.0615 60.8692C21.7269 62.1691 21.8062 63.7069 21.2675 65.2922C21.1566 65.5776 20.8556 65.7837 20.5229 65.7837Z" fill="black"/>
</svg>
