<svg width="34" height="35" viewBox="0 0 34 35" fill="none" xmlns="http://www.w3.org/2000/svg">
<path d="M16.6104 34.4788C12.1886 34.4788 8.02873 32.718 4.90111 29.5263C1.77349 26.3347 0.0479126 22.0897 0.0479126 17.5774C0.0479126 13.0652 1.77349 8.82015 4.90111 5.62853C8.02873 2.43692 12.1886 0.676025 16.6104 0.676025C21.0322 0.676025 25.1921 2.43692 28.3197 5.62853C31.4473 8.82015 33.1729 13.0652 33.1729 17.5774C33.1729 22.0897 31.4473 26.3347 28.3197 29.5263C25.1921 32.718 21.0322 34.4788 16.6104 34.4788ZM16.6104 1.44642C7.89006 1.44642 0.802854 8.67865 0.802854 17.5774C0.802854 26.4762 7.89777 33.7085 16.6104 33.7085C25.3308 33.7085 32.418 26.4684 32.418 17.5774C32.418 8.67865 25.3308 1.44642 16.6104 1.44642Z" fill="white"/>
<path d="M6.67287 11.1863C5.61749 11.1863 4.61603 10.7697 3.73784 10.4002L3.41429 10.2666C3.05993 10.1172 2.71327 9.97573 2.35891 9.82637C2.16632 9.74776 2.07388 9.51979 2.15092 9.32326C2.22795 9.12673 2.45135 9.0324 2.64394 9.11101C2.9983 9.26037 3.34496 9.40187 3.69932 9.55123L4.02287 9.68487C4.90106 10.0543 5.81007 10.4317 6.73449 10.416C7.51255 10.4002 8.47548 10.0072 8.76051 9.16604C8.88377 8.81229 8.87606 8.39565 8.87606 7.96328C8.86836 7.3344 8.86066 6.68978 9.23042 6.11592C9.49234 5.70714 9.87752 5.45559 10.2473 5.21189C10.4168 5.10184 10.5785 4.99964 10.7172 4.88173C11.4798 4.2607 11.8727 3.22303 11.9575 1.61936C11.9652 1.40711 12.1423 1.24203 12.3503 1.25775C12.5583 1.26561 12.7201 1.44642 12.7047 1.65867C12.6431 2.82211 12.4197 4.48081 11.1794 5.48703C11.0022 5.62853 10.8173 5.74645 10.6402 5.86437C10.3243 6.06876 10.0239 6.26528 9.8467 6.54042C9.60789 6.91776 9.60789 7.42087 9.6156 7.95542C9.6233 8.43495 9.6233 8.93806 9.46153 9.41759C9.05324 10.6046 7.76676 11.1706 6.7422 11.1863C6.72679 11.1863 6.69598 11.1863 6.67287 11.1863V11.1863Z" fill="white"/>
<path d="M22.727 28.0563C22.2802 28.0563 21.9104 27.9462 21.6177 27.7183C21.0861 27.3174 20.9475 26.8378 20.8242 26.4133C20.7395 26.1146 20.6548 25.8395 20.4468 25.5643C20.3081 25.3835 20.1001 25.2263 19.8767 25.0612C19.4915 24.7782 19.0524 24.4559 18.9215 23.8899C18.7751 23.2374 19.1372 22.695 19.453 22.2155C19.6995 21.8382 19.9383 21.4844 19.8921 21.1542C19.8305 20.7376 19.3452 20.4546 18.8059 20.1795C18.7135 20.1323 18.6287 20.0851 18.5363 20.038C18.2513 19.8886 17.9431 19.8257 17.635 19.8729C16.5796 20.0144 15.7707 20.0694 15.0158 20.0458C14.5151 20.0301 13.8526 19.8965 12.9359 19.6135C11.7033 19.2361 10.8097 18.1513 10.6556 16.8463C10.4861 15.4156 11.2565 14.0085 12.543 13.4268C12.8049 13.3088 13.0283 13.2302 13.2055 13.1909C13.321 13.1673 13.4443 13.1438 13.5521 13.1202C13.8064 13.073 14.0452 13.0258 14.2609 12.9394C14.4766 12.8529 14.7308 12.6564 14.7616 12.4048C14.7693 12.3655 14.7693 12.3262 14.7693 12.2712C14.7693 12.2004 14.7693 12.1297 14.7847 12.0432C14.8617 11.4615 15.3625 11.0841 15.817 10.9584C16.2561 10.8405 16.6952 10.9033 17.0803 10.9584L20.1309 11.3986C20.2234 11.4143 20.4082 11.4379 20.4699 11.3986C20.5084 11.375 20.5469 11.265 20.5238 11.1549C20.4776 10.8876 20.2542 10.6439 20.0231 10.3924C19.9614 10.3295 19.8998 10.2587 19.8459 10.1958C19.3298 9.60626 19.1834 8.96165 19.4684 8.4664C19.5455 8.3249 19.6533 8.21484 19.7457 8.12837C19.9075 7.96328 19.9306 7.92398 19.9152 7.83751C19.9075 7.7982 19.8921 7.75103 19.8613 7.71959C19.7457 7.58595 19.5455 7.53092 19.2604 7.54664C18.6596 7.59381 18.0818 7.9397 17.5194 8.27773L17.3731 8.3642C16.6566 8.79656 15.8709 9.18176 15.0312 9.07956C14.492 9.00881 13.9758 8.67865 13.6831 8.19912C13.4443 7.81392 13.3827 7.38942 13.5136 6.99637C13.6754 6.50112 14.1068 6.10806 14.7308 5.89581C14.9619 5.8172 15.1853 5.77003 15.4087 5.72286C15.6244 5.6757 15.8324 5.62853 16.025 5.55778C16.9109 5.24334 17.5811 4.36289 17.6581 3.4117C17.6581 3.36453 17.6658 3.32522 17.6658 3.27806C17.6735 3.10511 17.6889 2.90858 17.7582 2.71206C17.8661 2.39761 18.0741 2.16178 18.2898 1.95739C18.6673 1.59578 19.0832 1.28133 19.53 1.01405C19.7072 0.903999 19.9383 0.966888 20.0462 1.15555C20.154 1.33636 20.0924 1.57219 19.9075 1.68225C19.5069 1.91808 19.1372 2.20108 18.7982 2.52339C18.6518 2.65703 18.5132 2.80639 18.4593 2.96361C18.4284 3.06581 18.4207 3.19158 18.413 3.32522C18.413 3.37239 18.4053 3.42742 18.4053 3.47458C18.3052 4.71664 17.427 5.87223 16.2715 6.281C16.0327 6.36748 15.7939 6.41464 15.5627 6.46967C15.3548 6.51684 15.1545 6.55614 14.9696 6.62689C14.7847 6.68978 14.3456 6.87845 14.2223 7.24006C14.153 7.46017 14.23 7.66456 14.3148 7.79034C14.4843 8.06548 14.8078 8.27773 15.1159 8.31703C15.7322 8.39565 16.3793 8.06548 16.9879 7.70387L17.1343 7.6174C17.7736 7.2322 18.4284 6.83128 19.2065 6.77626C19.7303 6.73695 20.154 6.88631 20.4236 7.20862C20.5546 7.35798 20.6316 7.53878 20.6625 7.72745C20.7318 8.20698 20.4622 8.48998 20.2773 8.67078C20.2157 8.73367 20.154 8.79656 20.1155 8.85945C19.9923 9.0717 20.1694 9.43331 20.4005 9.69273C20.4545 9.75562 20.5084 9.81065 20.5623 9.87354C20.855 10.188 21.1863 10.5417 21.2633 11.0448C21.3327 11.4693 21.1709 11.8703 20.8627 12.0668C20.57 12.2555 20.2311 12.2004 20.0231 12.1768L16.9725 11.7366C16.6412 11.6895 16.2946 11.6423 16.0018 11.713C15.7862 11.7681 15.555 11.941 15.5242 12.1533C15.5165 12.1847 15.5165 12.2319 15.5165 12.2869C15.5165 12.3498 15.5165 12.4205 15.5088 12.4991C15.4549 12.9865 15.0851 13.4268 14.5536 13.6547C14.2686 13.7805 13.9758 13.8355 13.6908 13.8827C13.583 13.9063 13.4751 13.922 13.3673 13.9456C13.2748 13.9692 13.113 14.0163 12.8434 14.1343C11.8651 14.5745 11.2719 15.6593 11.4029 16.7599C11.5261 17.7582 12.2117 18.5994 13.1516 18.8824C13.9912 19.1418 14.6075 19.2676 15.0312 19.2833C15.7476 19.299 16.518 19.2519 17.5348 19.1182C17.9971 19.0553 18.467 19.1418 18.883 19.3698C18.9677 19.4169 19.0524 19.4641 19.1449 19.5034C19.6918 19.7864 20.5161 20.203 20.6393 21.052C20.7318 21.6809 20.3851 22.1998 20.077 22.6557C19.8074 23.0566 19.584 23.3947 19.6533 23.7248C19.7149 24.0078 19.9923 24.2122 20.3158 24.4402C20.5777 24.6289 20.8396 24.8254 21.0476 25.1005C21.3404 25.4857 21.4482 25.8631 21.5484 26.2011C21.6639 26.5863 21.7409 26.8614 22.0722 27.113C22.311 27.2938 22.6577 27.3095 22.9119 27.2859C24.0212 27.1916 24.9456 26.4133 25.5157 25.7687C27.118 23.9921 28.158 22.2784 28.0193 19.6921C27.9654 18.6308 28.1425 17.7347 28.5585 17.0193C28.7511 16.6813 29.0053 16.4061 29.2441 16.1467C29.4907 15.8794 29.7295 15.62 29.8758 15.3292C30.1609 14.771 30.1146 14.0478 29.7603 13.529C29.637 13.3482 29.4752 13.1831 29.3058 13.0023C28.9206 12.5935 28.4815 12.1375 28.4661 11.4772C28.443 10.6282 29.1748 9.99145 29.8989 9.80279C30.3072 9.69273 30.7078 9.69273 31.0468 9.70845C31.2548 9.71631 31.4165 9.89712 31.4088 10.1094C31.4011 10.3216 31.2239 10.4867 31.0159 10.4788C30.7309 10.471 30.3997 10.471 30.0838 10.5496C29.6447 10.6675 29.1979 11.037 29.2133 11.4615C29.221 11.8231 29.5061 12.1218 29.8373 12.4677C30.0222 12.6564 30.2071 12.8608 30.3689 13.0887C30.885 13.8355 30.9466 14.8811 30.5383 15.6829C30.338 16.0681 30.0607 16.3747 29.7911 16.6734C29.5677 16.9171 29.352 17.1529 29.1979 17.4123C28.8667 17.9862 28.7203 18.7645 28.7665 19.6528C28.9206 22.4985 27.7959 24.3694 26.0626 26.2876C25.3924 27.0265 24.3139 27.9384 22.9658 28.0484C22.8811 28.0563 22.804 28.0563 22.727 28.0563V28.0563Z" fill="white"/>
<path d="M9.9469 33.0167C9.73891 33.0167 9.56943 32.8437 9.56943 32.6315C9.56943 32.5843 9.57714 32.5371 9.59254 32.49C9.7235 32.0812 9.81594 31.4838 9.53092 30.9178C9.37685 30.6112 9.12263 30.3439 8.86071 30.0609C8.59109 29.7779 8.32147 29.487 8.11347 29.1176C7.67437 28.3236 7.66667 27.3016 8.09807 26.5077C8.1828 26.3583 8.26754 26.2247 8.35998 26.091C8.46013 25.9417 8.56028 25.7923 8.62961 25.6429C8.77597 25.3128 8.77597 24.9119 8.6142 24.5345C8.45243 24.1572 8.1751 23.8742 7.83615 23.7641C7.49719 23.6462 7.11202 23.6698 6.71144 23.6855C6.31856 23.7012 5.90257 23.7248 5.49429 23.6226C4.10766 23.2925 3.39894 21.8303 2.92903 20.604C2.90592 20.5332 2.8751 20.4625 2.85199 20.3917C2.69022 19.9515 2.53615 19.5349 2.25112 19.2597C1.79661 18.8116 1.27278 18.6859 0.725828 18.5522C0.594869 18.5208 0.46391 18.4893 0.332951 18.45C0.13266 18.395 0.0171075 18.1827 0.071032 17.9784C0.124956 17.774 0.332951 17.656 0.533241 17.7111C0.648794 17.7425 0.772049 17.774 0.903009 17.8054C1.50388 17.9469 2.18179 18.112 2.78266 18.7016C3.19094 19.1025 3.39123 19.6449 3.56071 20.1166C3.58382 20.1873 3.61464 20.2581 3.63775 20.3288C4.03833 21.3822 4.6315 22.6321 5.67147 22.8837C5.97961 22.9623 6.32626 22.9387 6.68062 22.923C7.13513 22.8994 7.61275 22.8758 8.08266 23.0409C8.6219 23.2217 9.06871 23.6619 9.31522 24.2358C9.56173 24.8097 9.56173 25.4464 9.32292 25.9731C9.23048 26.1775 9.10722 26.3583 8.99167 26.5312C8.90693 26.6492 8.8299 26.7671 8.76827 26.885C8.46013 27.451 8.46783 28.1821 8.78368 28.7481C8.94545 29.0311 9.17655 29.2748 9.41536 29.5421C9.7081 29.8486 10.0008 30.1709 10.2088 30.5797C10.5324 31.2243 10.5709 31.9869 10.309 32.773C10.255 32.9145 10.1087 33.0167 9.9469 33.0167V33.0167Z" fill="white"/>
</svg>
