<svg width="36" height="26" viewBox="0 0 36 26" fill="none" xmlns="http://www.w3.org/2000/svg">
<path d="M33.6667 0.850061H2.20003C1.38079 0.850061 0.716699 1.51415 0.716699 2.33339C0.716699 3.15264 1.38079 3.81673 2.20003 3.81673H33.6667C34.4859 3.81673 35.15 3.15264 35.15 2.33339C35.15 1.51415 34.4859 0.850061 33.6667 0.850061Z" fill="black" stroke="black" stroke-width="0.3"/>
<path d="M33.6667 11.5168H2.20003C1.38079 11.5168 0.716699 12.1809 0.716699 13.0001C0.716699 13.8194 1.38079 14.4835 2.20003 14.4835H33.6667C34.4859 14.4835 35.15 13.8194 35.15 13.0001C35.15 12.1809 34.4859 11.5168 33.6667 11.5168Z" fill="black" stroke="black" stroke-width="0.3"/>
<path d="M33.6667 22.1833H2.20003C1.38079 22.1833 0.716699 22.8474 0.716699 23.6666C0.716699 24.4859 1.38079 25.15 2.20003 25.15H33.6667C34.4859 25.15 35.15 24.4859 35.15 23.6666C35.15 22.8474 34.4859 22.1833 33.6667 22.1833Z" fill="black" stroke="black" stroke-width="0.3"/>
</svg>
