<svg width="108" height="109" viewBox="0 0 108 109" fill="none" xmlns="http://www.w3.org/2000/svg">
<path d="M48.6019 23.4C55.5579 23.392 61.1949 17.7551 61.2028 10.799C61.2028 9.80485 60.3969 8.9989 59.4027 8.9989C58.4085 8.9989 57.6025 9.80485 57.6025 10.799C57.5966 15.7675 53.5703 19.7938 48.6019 19.7997C47.6077 19.7997 46.8017 20.6057 46.8017 21.5998C46.8017 22.594 47.6077 23.4 48.6019 23.4Z" fill="black"/>
<path d="M101.834 6.17086C97.0453 1.3807 88.6315 1.12508 77.4832 5.39861C56.8051 -4.61753 32.0524 -0.440876 15.8058 15.8058C-0.440875 32.0524 -4.61753 56.8051 5.39861 77.4832C1.12508 88.6297 1.3807 97.0435 6.17086 101.834C9.01148 104.478 12.8067 105.852 16.6819 105.637C21.4327 105.462 26.1135 104.435 30.5015 102.606C51.1802 112.625 75.9353 108.451 92.1859 92.206C108.437 75.9606 112.618 51.2069 102.606 30.5249C106.881 19.3767 106.624 10.961 101.834 6.17086ZM66.9938 5.3248C69.465 13.4978 66.0551 22.3036 58.7241 26.6808C51.3931 31.058 42.0235 29.8826 36.0009 23.8302C32.1729 20.0169 30.2089 14.7171 30.6275 9.3301C41.8157 3.47294 54.7991 2.04298 66.9938 5.3248ZM18.3488 18.3488C20.9713 15.7375 23.8725 13.4218 27.0002 11.4435C27.1677 17.067 29.4813 22.4132 33.4663 26.3846C40.3526 33.2772 50.9255 34.8804 59.5455 30.3391C68.1655 25.7978 72.8222 16.1711 71.0315 6.5939C72.8835 7.24792 74.6957 8.00947 76.4589 8.87467C76.4775 8.88653 76.4968 8.89735 76.5165 8.90707L76.5435 8.92327L76.612 8.96107C80.4468 10.8623 84.0171 13.2557 87.2327 16.0806C88.1841 16.8842 88.4823 18.2238 87.9618 19.3551C80.6618 34.1446 70.9217 47.5981 59.1506 59.1506C47.5983 70.9224 34.1447 80.6631 19.3551 87.9636C18.2237 88.4835 16.8845 88.1853 16.0806 87.2346C13.2561 84.0186 10.8627 80.4483 8.96107 76.6138C8.93587 76.5646 8.90887 76.5159 8.88007 76.4679C-0.813264 57.0779 3.00208 33.6593 18.3488 18.3488ZM8.71626 99.2883C5.45081 96.0228 5.11599 89.8789 7.69558 81.7801C9.34572 84.5572 11.2462 87.1777 13.3732 89.6089C15.2283 91.7762 18.3017 92.439 20.8852 91.229C36.0505 83.7506 49.8473 73.7701 61.696 61.7068C73.7621 49.8535 83.7438 36.0511 91.2219 20.8798C92.4318 18.2963 91.769 15.2229 89.6017 13.3678C87.1701 11.2413 84.5496 9.34093 81.7729 7.69018C89.8736 5.11238 96.0156 5.44541 99.2811 8.71086C103.027 12.4569 102.919 19.9905 98.9768 29.9236C98.9434 30.0077 98.9169 30.0944 98.8976 30.1829C93.9293 42.593 83.5497 57.2299 70.3835 70.3835C57.2173 83.5371 42.5984 93.9257 30.1919 98.903C30.1024 98.9234 30.0145 98.9505 29.9291 98.984C19.9959 102.928 12.4623 103.036 8.71626 99.2883ZM64.9075 90.5954C67.5161 87.9631 71.4162 87.0859 74.9007 88.3477C78.3851 89.6096 80.8192 92.7806 81.1375 96.4728C75.986 99.7702 70.2751 102.098 64.2864 103.342C61.2098 99.5575 61.4775 94.0631 64.9075 90.5954ZM89.6557 89.6557C88.017 91.2815 86.2692 92.7935 84.4245 94.1813C83.1833 89.1858 79.1396 85.375 74.0794 84.4318C69.0192 83.4885 63.8742 85.5865 60.9165 89.7993C57.9587 94.012 57.7329 99.5638 60.3387 104.003C51.7652 105.099 43.0539 103.965 35.0468 100.71C47.0717 95.1299 60.6574 85.2148 72.9361 72.9361C85.2148 60.6574 95.1389 47.0717 100.71 35.0468C108.362 53.8148 104.004 75.3412 89.6557 89.6557Z" fill="black"/>
<path d="M21.562 66.5132C24.0381 64.0364 24.0378 60.0213 21.5612 57.5449C19.0845 55.0685 15.0694 55.0685 12.5928 57.5449C10.1162 60.0213 10.1158 64.0364 12.5919 66.5132C15.0704 68.9868 19.0836 68.9868 21.562 66.5132ZM15.1373 60.0921C15.9213 59.3076 17.1006 59.0727 18.1254 59.4969C19.1501 59.9211 19.8183 60.9209 19.8183 62.03C19.8183 63.1391 19.1501 64.1389 18.1254 64.5631C17.1006 64.9873 15.9213 64.7524 15.1373 63.9678C14.0697 62.8965 14.0697 61.1635 15.1373 60.0921Z" fill="black"/>
<path d="M95.4054 63.9678C93.5917 62.1539 90.8638 61.6112 88.494 62.5927C86.1241 63.5743 84.5789 65.8868 84.5789 68.4519C84.5789 71.017 86.1241 73.3296 88.494 74.3111C90.8638 75.2927 93.5917 74.75 95.4054 72.9361C97.8777 70.4578 97.8777 66.446 95.4054 63.9678ZM92.8672 70.3835C91.7965 71.454 90.0607 71.4539 88.99 70.3833C87.9194 69.3126 87.9194 67.5768 88.99 66.5062C90.0607 65.4355 91.7965 65.4354 92.8672 66.506C93.935 67.5779 93.935 69.3115 92.8672 70.3835Z" fill="black"/>
<path d="M50.4578 56.8825C52.9211 54.4196 53.6582 50.7154 52.3253 47.4972C50.9924 44.279 47.8521 42.1806 44.3688 42.1806C40.8855 42.1806 37.7452 44.279 36.4124 47.4972C35.0795 50.7154 35.8166 54.4196 38.2799 56.8825C41.6454 60.239 47.0923 60.239 50.4578 56.8825ZM40.8253 47.2482C42.2585 45.8148 44.4141 45.3859 46.2869 46.1616C48.1596 46.9373 49.3807 48.7647 49.3807 50.7917C49.3807 52.8188 48.1596 54.6462 46.2869 55.4219C44.4141 56.1975 42.2585 55.7687 40.8253 54.3353C38.8703 52.3774 38.8703 49.2061 40.8253 47.2482Z" fill="black"/>
<path d="M8.7317 99.3084C5.46626 96.0429 5.13143 89.899 7.71102 81.8002C9.36116 84.5773 11.2616 87.1978 13.3887 89.629C15.2438 91.7963 18.3171 92.4591 20.9006 91.2492C36.066 83.7707 49.8627 73.7902 61.7115 61.7269C73.7775 49.8736 83.7593 36.0712 91.2373 20.8999C92.4473 18.3164 91.7844 15.243 89.6172 13.3879C87.1855 11.2614 84.5651 9.36103 81.7884 7.71028C89.889 5.13249 96.0311 5.46551 99.2965 8.73096C103.043 12.477 102.935 20.0106 98.9923 29.9438C98.9588 30.0278 98.9323 30.1145 98.9131 30.203C93.9447 42.6131 83.5651 57.25 70.3989 70.4036C57.2327 83.5572 42.6138 93.9458 30.2073 98.9231C30.1178 98.9435 30.03 98.9706 29.9445 99.0041C20.0113 102.948 12.4778 103.056 8.7317 99.3084Z" fill="#ACFFFF"/>
</svg>
