<svg width="9" height="16" viewBox="0 0 9 16" fill="none" xmlns="http://www.w3.org/2000/svg">
<path d="M8.5731 6.92233L1.89791 0.247262C1.74352 0.0927507 1.53743 0.00762939 1.31767 0.00762939C1.09792 0.00762939 0.891822 0.0927507 0.737433 0.247262L0.245852 0.738721C-0.0740237 1.05896 -0.0740237 1.57945 0.245852 1.8992L5.85117 7.50452L0.239632 13.1161C0.0852432 13.2706 0 13.4765 0 13.6962C0 13.9161 0.0852432 14.122 0.239632 14.2767L0.731214 14.768C0.885725 14.9225 1.0917 15.0076 1.31145 15.0076C1.53121 15.0076 1.7373 14.9225 1.89169 14.768L8.5731 8.08683C8.72786 7.93183 8.81286 7.72488 8.81237 7.50489C8.81286 7.28403 8.72786 7.07721 8.5731 6.92233Z" fill="black"/>
</svg>
