<svg width="25" height="24" viewBox="0 0 25 24" fill="none" xmlns="http://www.w3.org/2000/svg">
<path d="M10.0238 19.3113C12.1692 19.3114 14.2534 18.5956 15.946 17.2772L22.3317 23.6629C22.8088 24.1236 23.5689 24.1104 24.0296 23.6334C24.479 23.1681 24.479 22.4303 24.0296 21.965L17.6439 15.5793C20.9153 11.3681 20.1535 5.3023 15.9423 2.03089C11.7311 -1.24052 5.66534 -0.478718 2.39393 3.73247C-0.877479 7.94365 -0.115682 14.0095 4.0955 17.2809C5.79089 18.5979 7.87687 19.3124 10.0238 19.3113ZM4.89288 4.52615C7.72661 1.69235 12.321 1.6923 15.1548 4.52604C17.9886 7.35978 17.9886 11.9542 15.1549 14.788C12.3212 17.6218 7.72677 17.6218 4.89298 14.7881C4.89293 14.788 4.89293 14.788 4.89288 14.788C2.05914 11.9749 2.04244 7.39723 4.85553 4.56349C4.86796 4.55101 4.88039 4.53858 4.89288 4.52615Z" fill="black"/>
</svg>
