<svg width="25" height="26" viewBox="0 0 25 26" fill="none" xmlns="http://www.w3.org/2000/svg">
<path d="M19.6479 16.3125C18.2522 16.3125 17.0044 16.9559 16.1849 17.9601L9.92715 14.7621C10.0101 14.4224 10.0542 14.0677 10.0542 13.7031C10.0542 13.1866 9.96584 12.69 9.80366 12.2278L16.3878 8.27185C17.2032 9.14205 18.3629 9.6875 19.6479 9.6875C22.1122 9.6875 24.1167 7.68304 24.1167 5.21875C24.1167 2.75446 22.1122 0.75 19.6479 0.75C17.1837 0.75 15.1792 2.75446 15.1792 5.21875C15.1792 5.71357 15.2603 6.19009 15.4096 6.63568L8.80299 10.6051C7.99005 9.76109 6.84822 9.23438 5.58545 9.23438C3.12116 9.23438 1.1167 11.2388 1.1167 13.7031C1.1167 16.1674 3.12116 18.1719 5.58545 18.1719C7.00421 18.1719 8.27007 17.5072 9.08873 16.4744L15.3217 19.6597C15.2287 20.0184 15.1792 20.3943 15.1792 20.7812C15.1792 23.2455 17.1837 25.25 19.6479 25.25C22.1122 25.25 24.1167 23.2455 24.1167 20.7812C24.1167 18.317 22.1122 16.3125 19.6479 16.3125ZM19.6479 2.65625C21.0607 2.65625 22.2104 3.80601 22.2104 5.21875C22.2104 6.63149 21.0607 7.78125 19.6479 7.78125C18.2352 7.78125 17.0854 6.63149 17.0854 5.21875C17.0854 3.80601 18.2352 2.65625 19.6479 2.65625ZM5.58545 16.2656C4.17271 16.2656 3.02295 15.1159 3.02295 13.7031C3.02295 12.2904 4.17271 11.1406 5.58545 11.1406C6.99819 11.1406 8.14795 12.2904 8.14795 13.7031C8.14795 15.1159 6.99819 16.2656 5.58545 16.2656ZM19.6479 23.3438C18.2352 23.3438 17.0854 22.194 17.0854 20.7812C17.0854 19.3685 18.2352 18.2188 19.6479 18.2188C21.0607 18.2188 22.2104 19.3685 22.2104 20.7812C22.2104 22.194 21.0607 23.3438 19.6479 23.3438Z" fill="black" stroke="black" stroke-width="0.5"/>
</svg>
