<svg width="46" height="44" viewBox="0 0 46 44" fill="none" xmlns="http://www.w3.org/2000/svg">
<path d="M34.9819 9.30323C34.3174 6.647 32.7845 4.28891 30.6267 2.6034C28.4688 0.917892 25.8098 0.00159193 23.0717 2.07239e-06C20.3336 -0.00158779 17.6734 0.911624 15.5137 2.59462C13.3539 4.27763 11.8183 6.63394 11.1507 9.2894C8.00163 9.58493 5.08746 11.0822 3.01348 13.4702C0.9395 15.8582 -0.13486 18.9533 0.0135619 22.1127C0.161984 25.2721 1.52178 28.2529 3.81049 30.436C6.09921 32.619 9.14092 33.8365 12.3038 33.8355H16.9163C17.3241 33.8355 17.7151 33.6735 18.0035 33.3852C18.2918 33.0969 18.4538 32.7058 18.4538 32.298C18.4538 31.8902 18.2918 31.4992 18.0035 31.2108C17.7151 30.9225 17.3241 30.7605 16.9163 30.7605H12.3038C11.0924 30.7641 9.89209 30.5289 8.77151 30.0686C7.65094 29.6083 6.632 28.9317 5.77289 28.0776C4.03782 26.3526 3.05906 24.0091 3.05193 21.5625C3.04479 19.1158 4.00986 16.7666 5.73483 15.0315C7.45981 13.2965 9.80338 12.3177 12.25 12.3106C12.6445 12.3403 13.036 12.2224 13.3485 11.9798C13.661 11.7372 13.8722 11.3871 13.9412 10.9976C14.2543 8.8021 15.3489 6.79331 17.0241 5.34008C18.6993 3.88686 20.8425 3.08678 23.0601 3.08678C25.2778 3.08678 27.421 3.88686 29.0962 5.34008C30.7713 6.79331 31.8659 8.8021 32.179 10.9976C32.2594 11.3736 32.4679 11.71 32.7687 11.9495C33.0696 12.189 33.4443 12.3166 33.8287 12.3106C36.2754 12.3106 38.6218 13.2825 40.3518 15.0125C42.0818 16.7425 43.0537 19.0889 43.0537 21.5355C43.0537 23.9822 42.0818 26.3286 40.3518 28.0586C38.6218 29.7886 36.2754 30.7605 33.8287 30.7605H29.2163C28.8085 30.7605 28.4174 30.9225 28.1291 31.2108C27.8407 31.4992 27.6788 31.8902 27.6788 32.298C27.6788 32.7058 27.8407 33.0969 28.1291 33.3852C28.4174 33.6735 28.8085 33.8355 29.2163 33.8355H33.8287C36.9685 33.8027 39.9768 32.5703 42.2372 30.3909C44.4976 28.2115 45.839 25.2502 45.9864 22.1137C46.1339 18.9773 45.0762 15.9032 43.0302 13.5214C40.9841 11.1396 38.1047 9.63046 34.9819 9.30323Z" fill="#8A8BA4"/>
<path d="M29.6669 27.3117C29.9569 27.5917 30.3453 27.7467 30.7484 27.7432C31.1515 27.7397 31.5371 27.578 31.8222 27.2929C32.1073 27.0079 32.269 26.6222 32.2725 26.2191C32.276 25.816 32.121 25.4276 31.8409 25.1376L24.1534 17.4502C23.8651 17.1619 23.4741 17 23.0664 17C22.6587 17 22.2677 17.1619 21.9794 17.4502L14.2919 25.1376C14.0119 25.4276 13.8569 25.816 13.8604 26.2191C13.8639 26.6222 14.0256 27.0079 14.3107 27.2929C14.5957 27.578 14.9814 27.7397 15.3845 27.7432C15.7876 27.7467 16.176 27.5917 16.466 27.3117L21.5289 22.2487V41.5996C21.5289 42.0074 21.6909 42.3984 21.9793 42.6868C22.2676 42.9751 22.6587 43.1371 23.0664 43.1371C23.4742 43.1371 23.8653 42.9751 24.1536 42.6868C24.4419 42.3984 24.6039 42.0074 24.6039 41.5996V22.2487L29.6669 27.3117Z" fill="#8A8BA4"/>
</svg>
